<svg width="24" height="24" viewBox="0 0 24 24" fill="none" xmlns="http://www.w3.org/2000/svg">
<path d="M9.56945 18.8206C9.37945 18.8206 9.18945 18.7506 9.03945 18.6006L2.96945 12.5306C2.67945 12.2406 2.67945 11.7606 2.96945 11.4706L9.03945 5.40061C9.32945 5.11061 9.80945 5.11061 10.0995 5.40061C10.3895 5.69061 10.3895 6.17061 10.0995 6.46061L4.55945 12.0006L10.0995 17.5406C10.3895 17.8306 10.3895 18.3106 10.0995 18.6006C9.95945 18.7506 9.75945 18.8206 9.56945 18.8206Z" fill="currentColor"/>
<path d="M20.4999 12.7505H3.66992C3.25992 12.7505 2.91992 12.4105 2.91992 12.0005C2.91992 11.5905 3.25992 11.2505 3.66992 11.2505H20.4999C20.9099 11.2505 21.2499 11.5905 21.2499 12.0005C21.2499 12.4105 20.9099 12.7505 20.4999 12.7505Z" fill="currentColor"/>
</svg>
